<svg width="17" height="18" viewBox="0 0 17 18" fill="none" xmlns="http://www.w3.org/2000/svg">
<path d="M3.41889 7.49711C4.77889 10.1699 6.97 12.361 9.64278 13.721L11.7206 11.6432C11.985 11.3788 12.3533 11.3032 12.6839 11.4071C13.7417 11.7566 14.875 11.9454 16.0556 11.9454C16.306 11.9454 16.5463 12.045 16.7234 12.2221C16.9005 12.3992 17 12.6394 17 12.8899V16.1954C17 16.4459 16.9005 16.6862 16.7234 16.8633C16.5463 17.0404 16.306 17.1399 16.0556 17.1399C11.7974 17.1399 7.71356 15.4483 4.70256 12.4373C1.69156 9.42633 0 5.34253 0 1.08434C0 0.833855 0.0995036 0.593632 0.276621 0.416514C0.453739 0.239396 0.693962 0.139893 0.944444 0.139893H4.25C4.50048 0.139893 4.74071 0.239396 4.91782 0.416514C5.09494 0.593632 5.19444 0.833855 5.19444 1.08434C5.19444 2.26489 5.38333 3.39823 5.73278 4.456C5.83667 4.78656 5.76111 5.15489 5.49667 5.41934L3.41889 7.49711Z" fill="#7B7047"/>
</svg>
